<?xml version="1.0" encoding="UTF-8" standalone="no"?>
<svg
   xmlns:dc="http://purl.org/dc/elements/1.1/"
   xmlns:cc="http://creativecommons.org/ns#"
   xmlns:rdf="http://www.w3.org/1999/02/22-rdf-syntax-ns#"
   xmlns:svg="http://www.w3.org/2000/svg"
   xmlns="http://www.w3.org/2000/svg"
   viewBox="0 0 1390.4933 2061.48"
   height="2061.48"
   width="1390.4933"
   xml:space="preserve"
   id="svg2"
   version="1.1"><metadata
     id="metadata8"><rdf:RDF><cc:Work
         rdf:about=""><dc:format>image/svg+xml</dc:format><dc:type
           rdf:resource="http://purl.org/dc/dcmitype/StillImage" /></cc:Work></rdf:RDF></metadata><defs
     id="defs6" /><g
     transform="matrix(1.3333333,0,0,-1.3333333,0,2061.48)"
     id="g10"><g
       transform="scale(0.1)"
       id="g12"><path
         id="path14"
         style="fill:#e8ed2e;fill-opacity:1;fill-rule:nonzero;stroke:none"
         d="m 7547.36,12006.8 v 0 c -29.83,-0.9 -60.36,-2.1 -91.62,-3.4 31.26,1.3 61.79,2.5 91.62,3.4" /><path
         id="path16"
         style="fill:#e8ed2e;fill-opacity:1;fill-rule:nonzero;stroke:none"
         d="m 6220.25,14549.8 c -369.92,269.4 -808.6,433.4 -1253.26,446.3 -436.81,12.5 -851.95,-95.1 -1215.14,-335.5 -96.78,-64.1 -134.34,-91.6 -219.53,-169.8 -70.06,-64.3 -136.95,-132.1 -198.41,-204.8 -62.22,-73.2 -100.71,-123.7 -163.11,-220.5 -52.5,-81.4 -101.82,-165.1 -146.47,-251.4 -184.97,-357.8 -308.83,-765.7 -404.49,-1182.5 -7.48,-32.6 -15.07,-65.1 -22.7,-97.7 111.48,-2.1 222.94,-5.9 334.33,-11.6 48.24,-2.5 96.85,-4.9 145.7,-7.4 225.44,753.4 598.15,1370.4 1331.76,1617.1 660.63,222.2 1415.24,11.8 1918.56,-534.7 283.38,-307.7 475.24,-689.1 625.87,-1102.9 147.24,11.7 294.71,20.4 442.31,25.8 -231.35,760.7 -531.41,1560.6 -1175.42,2029.6" /><path
         id="path18"
         style="fill:#e8ed2e;fill-opacity:1;fill-rule:nonzero;stroke:none"
         d="M 9056.9,6700.86 C 9360.69,5444.2 9248.4,4046 8644,2932.9 7931.43,1620.2 6672.94,937.5 5359.15,971.102 3330.36,1023.1 1336.13,2635.1 1204.04,5128.3 c -15.32,287.7 0,563.67 36.8,832.71 79.41,579.92 258.39,1127.89 445.03,1695.11 153.1,465.02 307.85,930.06 457.54,1397.29 -196.15,21.42 -382.63,74.63 -553.49,163.04 C 1391.04,8654.37 1185.07,8094.9 984.141,7533.56 784.043,6974.38 595.719,6409.21 505.105,5820.32 340.695,4700.5 618.887,3567.5 1253.92,2644.4 2164.53,1320.7 3775.39,509.102 5372.6,468.199 c 884.64,-22.797 1755.65,193.403 2508.39,668.101 775.91,489.1 1392.26,1236.8 1726.87,2107.4 367.12,954.9 448.24,2013.7 250.73,3017.17 C 9651,7314.05 9157.86,8268.16 8676.91,9217.4 8511.85,9128.51 8331.58,9073.3 8142.99,9048.82 8494.55,8286.69 8856.29,7530.8 9056.9,6700.86" /><path
         id="path20"
         style="fill:#e8ed2e;fill-opacity:1;fill-rule:nonzero;stroke:none"
         d="m 7051.77,12202.8 c 17.87,2.3 35.73,4.5 53.56,6.5 -17.83,-2 -35.69,-4.2 -53.56,-6.5 v 0" /><path
         id="path22"
         style="fill:#e8ed2e;fill-opacity:1;fill-rule:nonzero;stroke:none"
         d="m 7380.62,11999.6 c -25.38,-1.4 -51.08,-3 -77.03,-4.8 25.95,1.8 51.65,3.4 77.03,4.8" /><path
         id="path24"
         style="fill:#a56032;fill-opacity:1;fill-rule:nonzero;stroke:none"
         d="m 3368.1,5976.33 c 40.16,120.69 159.55,198.23 287.16,163.1 117.88,-32.32 203.45,-166.47 163.1,-287.16 -131.16,-394.17 -134.52,-841.67 57.73,-1194.97 170.57,-313.3 429.15,-536 761.89,-684.4 116.21,-51.7 142.74,-218.7 83.7,-319.4 -69.5,-118.7 -203.27,-135.7 -319.48,-83.7 -401.87,179.1 -761.89,499.9 -953.95,899.9 -228.12,474.9 -246.06,1008.17 -80.15,1506.63 z M 5413.14,2210.4 c 1657.75,0 3001.44,1343.9 3001.44,3001.4 0,1657.58 -1343.69,3001.26 -3001.44,3001.26 -1657.56,0 -3001.24,-1343.68 -3001.24,-3001.26 0,-1657.5 1343.68,-3001.4 3001.24,-3001.4" /><path
         id="path26"
         style="fill:#ffff5f;fill-opacity:1;fill-rule:nonzero;stroke:none"
         d="m 5750.15,11852.7 c -0.79,-6.8 -2.09,-13.6 -3.86,-20.2 1.77,6.6 3.07,13.4 3.86,20.2" /><path
         id="path28"
         style="fill:#ffff5f;fill-opacity:1;fill-rule:nonzero;stroke:none"
         d="m 5720.85,11726.6 c -8.11,-0.1 -16.32,0.5 -24.48,1.8 8.16,-1.3 16.37,-1.9 24.48,-1.8" /><path
         id="path30"
         style="fill:#ffff5f;fill-opacity:1;fill-rule:nonzero;stroke:none"
         d="m 5735.13,11804.5 c -3.16,-5.8 -6.77,-11.3 -10.8,-16.4 4.03,5.1 7.64,10.6 10.8,16.4" /><path
         id="path32"
         style="fill:#ffff5f;fill-opacity:1;fill-rule:nonzero;stroke:none"
         d="m 6426.66,12061.1 c -12.04,-4.4 -23.98,-9 -35.8,-13.6 v 0 c 11.82,4.6 23.76,9.2 35.8,13.6" /><path
         id="path34"
         style="fill:#ffff5f;fill-opacity:1;fill-rule:nonzero;stroke:none"
         d="m 5696.37,11728.4 c -21.76,3.5 -43.14,12.2 -61.1,25.9 v 0 c 17.96,-13.7 39.34,-22.4 61.1,-25.9" /><path
         id="path36"
         style="fill:#ffff5f;fill-opacity:1;fill-rule:nonzero;stroke:none"
         d="m 5413.14,8213.06 c 1657.75,0 3001.44,-1343.68 3001.44,-3001.26 0,-1657.5 -1343.69,-3001.4 -3001.44,-3001.4 -1657.56,0 -3001.24,1343.9 -3001.24,3001.4 0,1657.58 1343.68,3001.26 3001.24,3001.26 z m -621.5,1131.62 c 249.55,43.15 499.1,86.3 748.66,129.44 395.34,68.36 563.16,-381.98 167.51,-450.39 -249.55,-43.15 -499.11,-86.29 -748.66,-129.44 -395.34,-68.35 -563.16,381.98 -167.51,450.39 z M 1240.84,5961.01 C 1204.04,5691.97 1188.72,5416 1204.04,5128.3 1336.13,2635.1 3330.36,1023.1 5359.15,971.102 6672.94,937.5 7931.43,1620.2 8644,2932.9 c 604.4,1113.1 716.69,2511.3 412.9,3767.96 -200.61,829.94 -562.35,1585.83 -913.91,2347.96 -174.26,-22.62 -355.58,-19.08 -538.5,8.21 -1164.2,174.26 -1642.95,1202.17 -1818.13,2256.07 -404.14,262.8 -908.84,275.3 -1324.09,28.8 0,-1 0,-2.3 -0.47,-3.7 -172.87,-1061.4 -663.2,-2134.72 -1852.43,-2279.78 -159.2,-19.4 -315.39,-21.46 -465.96,-5.01 C 1993.72,8586.18 1838.97,8121.14 1685.87,7656.12 1499.23,7088.9 1320.25,6540.93 1240.84,5961.01" /><path
         id="path38"
         style="fill:#ffff5f;fill-opacity:1;fill-rule:nonzero;stroke:none"
         d="m 5667.56,11753.9 c 13.38,2.1 25.4,7.2 35.88,14.5 -10.48,-7.3 -22.5,-12.4 -35.88,-14.5" /><path
         id="path40"
         style="fill:#ffff5f;fill-opacity:1;fill-rule:nonzero;stroke:none"
         d="m 5657.28,11752.9 c 3.51,0.1 6.94,0.5 10.28,1 -3.34,-0.5 -6.77,-0.9 -10.28,-1" /><path
         id="path42"
         style="fill:#ffff5f;fill-opacity:1;fill-rule:nonzero;stroke:none"
         d="m 6563.89,11867.5 c -23.67,-7.9 -46.85,-16.3 -69.48,-25.2 22.63,8.9 45.81,17.3 69.48,25.2" /><path
         id="path44"
         style="fill:#ffff5f;fill-opacity:1;fill-rule:nonzero;stroke:none"
         d="m 4408.93,14132 c -733.61,-246.7 -1106.32,-863.7 -1331.76,-1617.1 359.5,-18 732.92,-38.8 1080.14,-119.6 219.68,-51.4 434.26,-176.1 488.48,-387.9 312.37,103.8 638.18,108.4 955.19,2.8 63.95,228.9 314.68,355.4 553.82,391.6 264.91,39.8 531.34,71.2 798.56,92.6 -150.63,413.8 -342.49,795.2 -625.87,1102.9 -503.32,546.5 -1257.93,756.9 -1918.56,534.7" /><path
         id="path46"
         style="fill:#ffff5f;fill-opacity:1;fill-rule:nonzero;stroke:none"
         d="m 6045.43,11172.7 v 0 c 1.27,2.2 2.47,4.4 3.58,6.7 -1.11,-2.3 -2.31,-4.5 -3.58,-6.7" /><path
         id="path48"
         style="fill:#ffff5f;fill-opacity:1;fill-rule:nonzero;stroke:none"
         d="m 5817.41,11292.3 c -5.1,3.7 -10.31,7.3 -15.53,10.8 5.22,-3.5 10.43,-7.1 15.53,-10.8 0.35,-4.4 0.81,-8.9 1.22,-13.4 -0.41,4.5 -0.87,9 -1.22,13.4" /><path
         id="path50"
         style="fill:#ffff5f;fill-opacity:1;fill-rule:nonzero;stroke:none"
         d="m 5872.21,11154 c -5.05,3.7 -9.85,7.8 -14.35,12.3 4.5,-4.5 9.3,-8.6 14.35,-12.3" /><path
         id="path52"
         style="fill:#ffff5f;fill-opacity:1;fill-rule:nonzero;stroke:none"
         d="m 5845.22,11549.5 c 31.98,-19 63.49,-38.9 94.08,-60.3 -30.59,21.4 -62.1,41.3 -94.08,60.3" /><path
         id="path54"
         style="fill:#ffff5f;fill-opacity:1;fill-rule:nonzero;stroke:none"
         d="m 5958.83,11127.4 c -5.97,-0.2 -12,0.1 -18.04,0.7 6.04,-0.6 12.07,-0.9 18.04,-0.7" /><path
         id="path56"
         style="fill:#ffff5f;fill-opacity:1;fill-rule:nonzero;stroke:none"
         d="m 5940.79,11128.1 c -6.04,0.6 -12.08,1.6 -18.06,3 5.98,-1.4 12.02,-2.4 18.06,-3" /><path
         id="path58"
         style="fill:#ffff5f;fill-opacity:1;fill-rule:nonzero;stroke:none"
         d="m 5915.53,11699.3 c 11.89,18.3 24.75,36.1 38.5,53.3 -13.75,-17.2 -26.61,-35 -38.5,-53.3" /><path
         id="path60"
         style="fill:#ffff5f;fill-opacity:1;fill-rule:nonzero;stroke:none"
         d="m 6045.43,11172.7 c 13.61,-71.5 28.51,-143.4 45.07,-215.2 -16.56,71.8 -31.46,143.7 -45.07,215.2 v 0" /><path
         id="path62"
         style="fill:#ffff5f;fill-opacity:1;fill-rule:nonzero;stroke:none"
         d="m 5905.03,11136.4 c -5.8,2.1 -11.48,4.7 -16.97,7.6 5.49,-2.9 11.17,-5.5 16.97,-7.6" /><path
         id="path64"
         style="fill:#ffff5f;fill-opacity:1;fill-rule:nonzero;stroke:none"
         d="m 5821.41,11252 c 0.52,-4.5 0.98,-9 1.56,-13.5 3.94,-30.2 16.92,-54.3 34.89,-72.2 -17.97,17.9 -30.95,42 -34.89,72.2 -0.58,4.5 -1.04,9 -1.56,13.5" /><path
         id="path66"
         style="fill:#ffff5f;fill-opacity:1;fill-rule:nonzero;stroke:none"
         d="m 7022.88,12199.1 c 9.63,1.3 19.26,2.5 28.89,3.7 v 0 c -9.63,-1.2 -19.26,-2.4 -28.89,-3.7" /><path
         id="path68"
         style="fill:#ffff5f;fill-opacity:1;fill-rule:nonzero;stroke:none"
         d="m 7025.52,11967.6 c -26.71,-3.5 -53.4,-7.3 -79.98,-11.4 26.58,4.1 53.27,7.9 79.98,11.4" /><path
         id="path70"
         style="fill:#ffff5f;fill-opacity:1;fill-rule:nonzero;stroke:none"
         d="m 7022.88,12199.1 c -55.03,-7.3 -110.1,-15.8 -164.75,-25.5 54.65,9.7 109.72,18.2 164.75,25.5" /><path
         id="path72"
         style="fill:#ffff5f;fill-opacity:1;fill-rule:nonzero;stroke:none"
         d="m 7059.87,9474.88 c -28.39,15.43 -56.35,31.69 -83.86,48.78 27.51,-17.09 55.47,-33.35 83.86,-48.78" /><path
         id="path74"
         style="fill:#ffff5f;fill-opacity:1;fill-rule:nonzero;stroke:none"
         d="m 6656.1,12130.8 c 52.85,13.2 106.72,24.9 161.13,35.2 -54.41,-10.3 -108.28,-22 -161.13,-35.2" /><path
         id="path76"
         style="fill:#ffff5f;fill-opacity:1;fill-rule:nonzero;stroke:none"
         d="m 5975.32,11777.9 c 14.64,16.6 30.14,32.6 46.46,48 -16.32,-15.4 -31.82,-31.4 -46.46,-48" /><path
         id="path78"
         style="fill:#ffff5f;fill-opacity:1;fill-rule:nonzero;stroke:none"
         d="m 7466.42,9317.46 c -31.65,7.89 -63,16.61 -94.03,26.18 31.03,-9.57 62.38,-18.29 94.03,-26.18" /><path
         id="path80"
         style="fill:#ddaa87;fill-opacity:1;fill-rule:nonzero;stroke:none"
         d="m 4402.2,3569.8 c 116.21,-52 249.98,-35 319.48,83.7 59.04,100.7 32.51,267.7 -83.7,319.4 -332.74,148.4 -591.32,371.1 -761.89,684.4 -192.25,353.3 -188.89,800.8 -57.73,1194.97 40.35,120.69 -45.22,254.84 -163.1,287.16 -127.61,35.13 -247,-42.41 -287.16,-163.1 -165.91,-498.46 -147.97,-1031.73 80.15,-1506.63 192.06,-400 552.08,-720.8 953.95,-899.9" /><path
         id="path82"
         style="fill:#1e5125;fill-opacity:1;fill-rule:nonzero;stroke:none"
         d="m 7960.89,12247.9 c -8.64,0 -17.47,0 -26.49,0 9.02,0 17.85,0 26.49,0 1.17,0 2.33,0 3.5,0 v 0 c -1.17,0 -2.33,0 -3.5,0" /><path
         id="path84"
         style="fill:#1e5125;fill-opacity:1;fill-rule:nonzero;stroke:none"
         d="m 7898.79,12297.7 c -47.27,0 -94.55,-0.2 -141.82,-0.6 -88.75,-1.1 -177.5,-2.9 -266.23,-5.7 88.73,2.8 177.48,4.6 266.23,5.7 47.27,0.4 94.55,0.6 141.82,0.6" /><path
         id="path86"
         style="fill:#1e5125;fill-opacity:1;fill-rule:nonzero;stroke:none"
         d="m 7632.16,12009.2 c 33.33,0.7 65.33,1.3 95.76,1.8 -30.43,-0.5 -62.43,-1.1 -95.76,-1.8" /><path
         id="path88"
         style="fill:#1e5125;fill-opacity:1;fill-rule:nonzero;stroke:none"
         d="m 7951.56,12014.1 c -20.86,-0.1 -41.55,-0.3 -62.04,-0.7 -46.19,-0.9 -100.74,-1.4 -161.6,-2.4 60.86,1 115.41,1.5 161.6,2.4 20.49,0.4 41.18,0.6 62.04,0.7" /><path
         id="path90"
         style="fill:#1e5125;fill-opacity:1;fill-rule:nonzero;stroke:none"
         d="m 9820.29,7912.45 c -230.11,544.35 -503.13,1068.53 -770,1595.52 C 8938.78,9387.02 8813.05,9290.71 8676.91,9217.4 9157.86,8268.16 9651,7314.05 9858.59,6260.87 10056.1,5257.4 9974.98,4198.6 9607.86,3243.7 9273.25,2373.1 8656.9,1625.4 7880.99,1136.3 7128.25,661.602 6257.24,445.402 5372.6,468.199 3775.39,509.102 2164.53,1320.7 1253.92,2644.4 618.887,3567.5 340.695,4700.5 505.105,5820.32 c 90.614,588.89 278.938,1154.06 479.036,1713.24 200.929,561.34 406.899,1120.81 605.779,1682.89 -142.02,73.5 -273.22,171.32 -390.16,295.52 C 1124.65,9297.81 1048.51,9084.03 971.809,8870.52 798.055,8386.63 618.887,7904.42 449.246,7419.03 281.098,6938.13 132.379,6449.2 54.8438,5944.57 -91.2578,4950.1 55.2148,3948.8 486.234,3040.5 854.293,2264.8 1436.83,1609.4 2125.3,1102.9 3517.93,78.1016 5436.5,-295.898 7089.39,251.5 7975.52,545 8767.5,1099.3 9338.64,1838.2 c 651.29,842.6 998.06,1865 1075.36,2922.2 79.6,1090.56 -171.1,2152.88 -593.71,3152.05" /><path
         id="path92"
         style="fill:#1e5125;fill-opacity:1;fill-rule:nonzero;stroke:none"
         d="m 2597.14,12533.9 c 7.63,32.6 15.22,65.1 22.7,97.7 95.66,416.8 219.52,824.7 404.49,1182.5 44.65,86.3 93.97,170 146.47,251.4 62.4,96.8 100.89,147.3 163.11,220.5 61.46,72.7 128.35,140.5 198.41,204.8 85.19,78.2 122.75,105.7 219.53,169.8 363.19,240.4 778.33,348 1215.14,335.5 444.66,-12.9 883.34,-176.9 1253.26,-446.3 644.01,-469 944.07,-1268.9 1175.42,-2029.6 2.1,0.1 4.2,0.2 6.29,0.2 159.62,5.7 319.13,8.1 478.49,7.3 -116.83,382.4 -243.88,761.1 -410.49,1126.1 -197.67,432.8 -470.07,842.7 -831.77,1155.7 -374.41,323.9 -839.8,541.8 -1328.92,619.1 -502.02,79.4 -994.32,11.6 -1460.83,-186.6 -399.45,-169.6 -726.59,-459.2 -985.16,-803.2 -416.57,-553.9 -594.57,-1233.3 -754.8,-1906.9 162.83,4.4 325.76,5.1 488.66,2" /><path
         id="path94"
         style="fill:#1e5125;fill-opacity:1;fill-rule:nonzero;stroke:none"
         d="m 7632.16,12009.2 c -27.39,-0.7 -55.77,-1.4 -84.8,-2.4 v 0 c 29.03,1 57.41,1.7 84.8,2.4" /><path
         id="path96"
         style="fill:#000000;fill-opacity:1;fill-rule:nonzero;stroke:none"
         d="m 4959.15,8894.29 c 249.55,43.15 499.11,86.29 748.66,129.44 395.65,68.41 227.83,518.75 -167.51,450.39 -249.56,-43.14 -499.11,-86.29 -748.66,-129.44 -395.65,-68.41 -227.83,-518.74 167.51,-450.39" /><path
         id="path98"
         style="fill:#201600;fill-opacity:1;fill-rule:nonzero;stroke:none"
         d="m 4450.22,11414.2 c 1.85,-25.5 2.78,-51.5 1.85,-78.4 3.24,2.4 6.95,4.2 10.2,6.1 3.7,27.3 -1.39,51.9 -12.05,72.3" /><path
         id="path100"
         style="fill:#000000;fill-opacity:1;fill-rule:nonzero;stroke:none"
         d="m 1245.1,10211.5 c -92.74,382.2 -156.32,769 -194.79,1160.4 -20.08,204.2 298.33,202.2 318.21,0 35.71,-363.3 97.38,-721.2 183.43,-1075.8 48.37,-199.4 -258.48,-284 -306.85,-84.6 z m -71.87,1784.9 c 205.21,0 205.21,-318.2 0,-318.2 -205.207,0 -205.207,318.2 0,318.2 z m 6583.74,300.7 c 47.27,0.4 94.55,0.6 141.82,0.6 -47.27,0 -94.55,-0.2 -141.82,-0.6 -88.75,-1.1 -177.5,-2.9 -266.23,-5.7 88.73,2.8 177.48,4.6 266.23,5.7 z m 728.17,-132.2 c 308.77,36.2 999.26,-35.3 976.53,-471.1 -3.88,-74.3 -119.76,-74.7 -115.87,0 18.24,349.7 -620.44,383.4 -860.66,355.3 -74.13,-8.7 -73.29,107.3 0,115.8 z m 858.68,-924 c 3.44,-22.4 6.09,-45.4 7.92,-69 -1.83,23.6 -4.48,46.6 -7.92,69 z m -122.38,316.3 c 16.58,-24.2 31.81,-49.5 45.58,-76.1 -13.77,26.6 -29,51.9 -45.58,76.1 z M 7372.39,9343.64 c 31.03,-9.57 62.38,-18.29 94.03,-26.18 -31.65,7.89 -63,16.61 -94.03,26.18 z m -396.38,180.02 c 27.51,-17.09 55.47,-33.35 83.86,-48.78 -28.39,15.43 -56.35,31.69 -83.86,48.78 z m -930.58,1649.04 v 0 0 c 1.27,2.2 2.47,4.4 3.58,6.7 -1.11,-2.3 -2.31,-4.5 -3.58,-6.7 13.61,-71.5 28.51,-143.4 45.07,-215.2 -16.56,71.8 -31.46,143.7 -45.07,215.2 z m -104.64,-44.6 c -6.04,0.6 -12.08,1.6 -18.06,3 5.98,-1.4 12.02,-2.4 18.06,-3 6.04,-0.6 12.07,-0.9 18.04,-0.7 -5.97,-0.2 -12,0.1 -18.04,0.7 z m -52.73,15.9 c 5.49,-2.9 11.17,-5.5 16.97,-7.6 -5.8,2.1 -11.48,4.7 -16.97,7.6 z m -30.2,22.3 c -17.97,17.9 -30.95,42 -34.89,72.2 -0.58,4.5 -1.04,9 -1.56,13.5 0.52,-4.5 0.98,-9 1.56,-13.5 3.94,-30.2 16.92,-54.3 34.89,-72.2 4.5,-4.5 9.3,-8.6 14.35,-12.3 -5.05,3.7 -9.85,7.8 -14.35,12.3 z m -55.98,136.8 c 5.22,-3.5 10.43,-7.1 15.53,-10.8 0.35,-4.4 0.81,-8.9 1.22,-13.4 -0.41,4.5 -0.87,9 -1.22,13.4 -5.1,3.7 -10.31,7.3 -15.53,10.8 z m 137.42,186.1 c -30.59,21.4 -62.1,41.3 -94.08,60.3 31.98,-19 63.49,-38.9 94.08,-60.3 z m 14.73,263.4 c -13.75,-17.2 -26.61,-35 -38.5,-53.3 11.89,18.3 24.75,36.1 38.5,53.3 z m 21.29,25.3 c 14.64,16.6 30.14,32.6 46.46,48 -16.32,-15.4 -31.82,-31.4 -46.46,-48 z m 841.91,388.1 c -54.41,-10.3 -108.28,-22 -161.13,-35.2 52.85,13.2 106.72,24.9 161.13,35.2 z m 208.29,-198.4 c -26.71,-3.5 -53.4,-7.3 -79.98,-11.4 26.58,4.1 53.27,7.9 79.98,11.4 z m 26.25,235.2 c -9.63,-1.2 -19.26,-2.4 -28.89,-3.7 -55.03,-7.3 -110.1,-15.8 -164.75,-25.5 54.65,9.7 109.72,18.2 164.75,25.5 9.63,1.3 19.26,2.5 28.89,3.7 17.87,2.3 35.73,4.5 53.56,6.5 -17.83,-2 -35.69,-4.2 -53.56,-6.5 z m 987.91,44.6 c -12.98,0.3 -26.07,0.4 -39.22,0.5 -11.99,0 -24.03,0 -36.07,0 -1.17,0 -2.33,0 -3.5,0 -8.64,0 -17.47,0 -26.49,0 9.02,0 17.85,0 26.49,0 1.17,0 2.33,0 3.5,0 12.04,0 24.08,0 36.07,0 13.15,-0.1 26.24,-0.2 39.22,-0.5 z m -736.09,-252.6 c 25.95,1.8 51.65,3.4 77.03,4.8 -25.38,-1.4 -51.08,-3 -77.03,-4.8 z m 243.77,12 c 29.03,1 57.41,1.7 84.8,2.4 33.33,0.7 65.33,1.3 95.76,1.8 60.86,1 115.41,1.5 161.6,2.4 20.49,0.4 41.18,0.6 62.04,0.7 -20.86,-0.1 -41.55,-0.3 -62.04,-0.7 -46.19,-0.9 -100.74,-1.4 -161.6,-2.4 -30.43,-0.5 -62.43,-1.1 -95.76,-1.8 -27.39,-0.7 -55.77,-1.4 -84.8,-2.4 -29.83,-0.9 -60.36,-2.1 -91.62,-3.4 31.26,1.3 61.79,2.5 91.62,3.4 z m -1052.95,-164.5 c 22.63,8.9 45.81,17.3 69.48,25.2 -23.67,-7.9 -46.85,-16.3 -69.48,-25.2 z m -3.07,-1630.8 c -92.74,382.2 -156.31,769 -194.79,1160.4 -20.07,204.2 298.33,202.2 318.22,0 35.71,-363.3 97.38,-721.2 183.42,-1075.8 48.37,-199.4 -258.48,-284 -306.85,-84.6 z m 2570.87,1514.6 c 15.31,-12.1 30.15,-24.7 44.49,-37.8 -14.34,13.1 -29.18,25.7 -44.49,37.8 z m 105.56,-99.9 c -12.78,14.5 -26.1,28.6 -39.93,42.2 13.83,-13.6 27.15,-27.7 39.93,-42.2 12.77,-14.6 25,-29.6 36.64,-45.2 -11.64,15.6 -23.87,30.6 -36.64,45.2 z m 146.26,-258.3 c 9.67,-29.9 17.72,-61.2 24.05,-93.9 -6.33,32.7 -14.38,64 -24.05,93.9 z m -3103.31,648.6 c 48.01,48 121.19,58.2 180.14,31 11.82,4.6 23.76,9.2 35.8,13.6 -12.04,-4.4 -23.98,-9 -35.8,-13.6 16.3,-7.5 31.58,-17.7 44.86,-31 61.31,-61.3 61.31,-163.7 0,-225 -5.55,-5.6 -11.11,-11.1 -16.66,-16.7 -61.3,-61.3 -163.71,-61.3 -225.01,0 -61.3,61.3 -61.3,163.7 0,225 5.56,5.6 11.11,11.1 16.67,16.7 z m -553.44,-263.6 c 3.51,0.1 6.94,0.5 10.28,1 13.38,2.1 25.4,7.2 35.88,14.5 -10.48,-7.3 -22.5,-12.4 -35.88,-14.5 -3.34,-0.5 -6.77,-0.9 -10.28,-1 z m -22.01,1.4 c 17.96,-13.7 39.34,-22.4 61.1,-25.9 8.16,-1.3 16.37,-1.9 24.48,-1.8 -8.11,-0.1 -16.32,0.5 -24.48,1.8 -21.76,3.5 -43.14,12.2 -61.1,25.9 z m 111.02,78.2 c 1.77,6.6 3.07,13.4 3.86,20.2 -0.79,-6.8 -2.09,-13.6 -3.86,-20.2 z m -21.96,-44.4 c 4.03,5.1 7.64,10.6 10.8,16.4 -3.16,-5.8 -6.77,-11.3 -10.8,-16.4 z M 4167.28,11720 c -3.88,-74.3 -119.76,-74.7 -115.87,0 18.24,349.7 -620.44,383.4 -860.66,355.3 -74.12,-8.7 -73.29,107.3 0,115.8 308.78,36.2 999.25,-35.3 976.53,-471.1 z m 5882.52,487 c -2.8,5.2 -5.9,10.2 -9.3,14.8 3.4,-4.6 6.5,-9.6 9.3,-14.8 z m -166.03,-556 c -2.09,19.9 -4.17,39.8 -6.2,59.8 2.03,-20 4.11,-39.9 6.2,-59.8 z M 1589.92,9216.45 c 170.86,-88.41 357.34,-141.62 553.49,-163.04 150.57,-16.45 306.76,-14.39 465.96,5.01 1189.23,145.06 1679.56,1218.38 1852.43,2279.78 0.47,1.4 0.47,2.7 0.47,3.7 -3.25,-1.9 -6.96,-3.7 -10.2,-6.1 0.93,26.9 0,52.9 -1.85,78.4 10.66,-20.4 15.75,-45 12.05,-72.3 415.25,246.5 919.95,234 1324.09,-28.8 175.18,-1053.9 653.93,-2081.81 1818.13,-2256.07 182.92,-27.29 364.24,-30.83 538.5,-8.21 188.59,24.48 368.86,79.69 533.92,168.58 136.14,73.31 261.87,169.62 373.38,290.57 27.16,29.47 53.56,60.27 78.97,92.69 201.6,257.22 285.03,573.74 355.01,887.04 17.15,78.3 53.76,290.6 111.69,504.2 80.18,293.9 201.61,590.5 372.62,547.4 67.22,-16.7 154.82,34.3 146.92,111.7 -17.6,170.1 -34.8,340.2 -52.4,510.7 0,0.9 -0.4,2.3 -0.4,3.3 33.3,60.7 19.4,144.6 -67.24,160.8 -699.02,130.2 -1405.45,198.2 -2115.01,201.9 -159.36,0.8 -318.87,-1.6 -478.49,-7.3 -2.09,0 -4.19,-0.1 -6.29,-0.2 -147.6,-5.4 -295.07,-14.1 -442.31,-25.8 -267.22,-21.4 -533.65,-52.8 -798.56,-92.6 -239.14,-36.2 -489.87,-162.7 -553.82,-391.6 -317.01,105.6 -642.82,101 -955.19,-2.8 -54.22,211.8 -268.8,336.5 -488.48,387.9 -347.22,80.8 -720.64,101.6 -1080.14,119.6 -48.85,2.5 -97.46,4.9 -145.7,7.4 -111.39,5.7 -222.85,9.5 -334.33,11.6 -162.9,3.1 -325.83,2.4 -488.66,-2 -623.79,-16.5 -1246.101,-86.3 -1859.023,-200.6 -86.668,-16.2 -100.57,-100.5 -67.664,-161.2 -0.465,-1 -0.465,-1.9 -0.465,-2.8 -17.148,-170.1 -34.758,-340.7 -51.906,-510.7 -7.879,-77.5 79.715,-128.4 146.449,-111.7 179.359,44.9 281.32,-249.8 343.422,-546.5 46.812,-224.7 70.91,-450.9 88.059,-530.1 62.566,-292.5 194.187,-572.42 371.688,-812.02 38.25,-51.65 78.61,-99.59 120.72,-144.31 116.94,-124.2 248.14,-222.02 390.16,-295.52" /><path
         id="path102"
         style="fill:#ffffff;fill-opacity:1;fill-rule:nonzero;stroke:none"
         d="m 1551.95,10296.1 c -86.05,354.6 -147.72,712.5 -183.43,1075.8 -19.88,202.2 -338.29,204.2 -318.21,0 38.47,-391.4 102.05,-778.2 194.79,-1160.4 48.37,-199.4 355.22,-114.8 306.85,84.6" /><path
         id="path104"
         style="fill:#ffffff;fill-opacity:1;fill-rule:nonzero;stroke:none"
         d="m 6798.19,10296.1 c -86.04,354.6 -147.71,712.5 -183.42,1075.8 -19.89,202.2 -338.29,204.2 -318.22,0 38.48,-391.4 102.05,-778.2 194.79,-1160.4 48.37,-199.4 355.22,-114.8 306.85,84.6" /><path
         id="path106"
         style="fill:#ffffff;fill-opacity:1;fill-rule:nonzero;stroke:none"
         d="m 1173.23,11678.2 c 205.21,0 205.21,318.2 0,318.2 -205.207,0 -205.207,-318.2 0,-318.2" /><path
         id="path108"
         style="fill:#ffffff;fill-opacity:1;fill-rule:nonzero;stroke:none"
         d="m 6194.05,11774.8 c 61.3,-61.3 163.71,-61.3 225.01,0 5.55,5.6 11.11,11.1 16.66,16.7 61.31,61.3 61.31,163.7 0,225 -13.28,13.3 -28.56,23.5 -44.86,31 v 0 c -58.95,27.2 -132.13,17 -180.14,-31 -5.56,-5.6 -11.11,-11.1 -16.67,-16.7 -61.3,-61.3 -61.3,-163.7 0,-225" /><path
         id="path110"
         style="fill:#ffffff;fill-opacity:1;fill-rule:nonzero;stroke:none"
         d="m 3190.75,12191.1 c -73.29,-8.5 -74.12,-124.5 0,-115.8 240.22,28.1 878.9,-5.6 860.66,-355.3 -3.89,-74.7 111.99,-74.3 115.87,0 22.72,435.8 -667.75,507.3 -976.53,471.1" /><path
         id="path112"
         style="fill:#ffffff;fill-opacity:1;fill-rule:nonzero;stroke:none"
         d="m 8485.14,12049.1 c 240.22,28.1 878.9,-5.6 860.66,-355.3 -3.89,-74.7 111.99,-74.3 115.87,0 22.73,435.8 -667.76,507.3 -976.53,471.1 -73.29,-8.5 -74.13,-124.5 0,-115.8" /></g></g></svg>